<svg xmlns="http://www.w3.org/2000/svg" xmlns:xlink="http://www.w3.org/1999/xlink" width="1920" zoomAndPan="magnify" viewBox="0 0 1440 809.999993" height="1080" preserveAspectRatio="xMidYMid meet" version="1.2"><defs><clipPath id="6c39b5b4e9"><path d="M 20.167969 245.996094 L 246.667969 245.996094 L 246.667969 513.746094 L 20.167969 513.746094 Z M 20.167969 245.996094 "/></clipPath><clipPath id="d3f52d01e6"><path d="M 34.867188 263.355469 L 231.945312 263.355469 L 231.945312 446.835938 L 34.867188 446.835938 Z M 34.867188 263.355469 "/></clipPath><clipPath id="8610501c1d"><path d="M 199.535156 275.035156 L 222.785156 275.035156 L 222.785156 301.285156 L 199.535156 301.285156 Z M 199.535156 275.035156 "/></clipPath></defs><g id="59de5f5696"><g clip-rule="nonzero" clip-path="url(#6c39b5b4e9)"><path style=" stroke:none;fill-rule:evenodd;fill:#f2f2f2;fill-opacity:1;" d="M 246.667969 245.996094 L 20.167969 245.996094 L 20.167969 513.746094 L 246.667969 513.746094 Z M 230.800781 261.863281 L 36.035156 261.863281 L 36.035156 447.902344 L 230.800781 447.902344 Z M 230.800781 261.863281 "/></g><g clip-rule="nonzero" clip-path="url(#d3f52d01e6)"><path style=" stroke:none;fill-rule:nonzero;fill:#0378b5;fill-opacity:1;" d="M 34.867188 263.355469 L 231.964844 263.355469 L 231.964844 446.835938 L 34.867188 446.835938 Z M 34.867188 263.355469 "/></g><g clip-rule="nonzero" clip-path="url(#8610501c1d)"><path style=" stroke:none;fill-rule:nonzero;fill:#000000;fill-opacity:1;" d="M 210.007812 275.035156 C 209.496094 275.035156 208.9375 275.085938 208.222656 275.1875 C 207.511719 275.289062 206.796875 275.542969 206.1875 275.847656 C 205.625 276.15625 205.117188 276.511719 204.710938 276.816406 L 204.761719 276.816406 L 204.660156 276.917969 L 204.605469 276.96875 L 204.554688 277.019531 L 204.503906 277.019531 L 204.554688 276.96875 L 204.503906 277.019531 C 204.097656 277.328125 203.84375 277.582031 203.589844 277.835938 C 203.28125 278.140625 203.027344 278.445312 202.824219 278.753906 C 202.519531 279.109375 202.265625 279.566406 201.90625 280.078125 C 201.550781 280.636719 201.347656 281.097656 201.144531 281.503906 C 200.941406 282.011719 200.890625 282.523438 200.785156 283.03125 C 200.734375 283.132812 200.683594 283.183594 200.632812 283.285156 L 200.582031 283.386719 C 200.429688 283.746094 200.277344 284.101562 200.125 284.457031 C 199.871094 285.171875 199.769531 285.9375 199.667969 286.597656 C 199.613281 287.210938 199.5625 287.769531 199.667969 288.378906 C 199.71875 288.941406 199.820312 289.652344 200.023438 290.417969 C 200.226562 291.132812 200.480469 291.742188 200.785156 292.304688 C 201.296875 293.167969 201.855469 294.035156 202.417969 294.902344 C 202.570312 295.105469 202.722656 295.359375 202.875 295.5625 C 203.691406 296.785156 204.453125 297.753906 205.320312 298.519531 C 205.726562 298.875 206.289062 299.382812 206.949219 299.792969 C 207.511719 300.097656 208.121094 300.402344 208.835938 300.605469 C 209.90625 300.964844 211.078125 301.117188 212.402344 301.167969 C 212.554688 301.167969 212.65625 301.167969 212.808594 301.167969 C 213.316406 301.167969 214.03125 301.167969 214.746094 300.964844 C 214.949219 300.914062 215.101562 300.808594 215.304688 300.757812 C 215.355469 300.707031 215.457031 300.707031 215.507812 300.65625 C 215.609375 300.605469 215.710938 300.554688 215.816406 300.503906 C 216.121094 300.351562 216.425781 300.199219 216.730469 300.046875 C 217.34375 299.691406 217.953125 299.230469 218.414062 298.824219 C 218.871094 298.417969 219.277344 297.957031 219.636719 297.550781 C 220.09375 296.988281 220.449219 296.429688 220.859375 295.867188 C 221.214844 295.308594 221.519531 294.699219 221.773438 293.933594 C 221.976562 293.371094 222.082031 292.8125 222.183594 292.253906 C 222.335938 291.589844 222.4375 290.875 222.488281 290.164062 C 222.539062 289.449219 222.589844 288.789062 222.539062 288.226562 C 222.539062 287.617188 222.386719 286.953125 222.183594 286.242188 C 222.027344 285.679688 221.773438 285.121094 221.519531 284.609375 C 221.46875 284.457031 221.417969 284.355469 221.367188 284.203125 C 221.113281 283.59375 220.859375 283.03125 220.601562 282.523438 C 220.296875 281.960938 220.042969 281.453125 219.738281 280.941406 C 219.480469 280.484375 219.125 279.925781 218.769531 279.363281 C 218.414062 278.855469 217.953125 278.292969 217.445312 277.785156 C 216.984375 277.328125 216.425781 276.917969 215.867188 276.5625 C 215.304688 276.207031 214.644531 276.003906 214.132812 275.796875 C 213.625 275.644531 213.0625 275.492188 212.402344 275.390625 C 211.585938 275.238281 210.925781 275.136719 210.3125 275.136719 C 210.210938 275.035156 210.109375 275.035156 210.007812 275.035156 "/></g><g style="fill:#ffffff;fill-opacity:1;"><g transform="translate(252.917636, 432.110471)"><path style="stroke:none" d="M 83.234375 -62.078125 C 80.347656 -61.015625 78 -60.484375 76.1875 -60.484375 C 72.84375 -60.484375 69.691406 -61.617188 66.734375 -63.890625 C 63.785156 -66.171875 61.328125 -69.28125 59.359375 -73.21875 L 65.71875 -77.3125 C 73 -82.164062 78.378906 -85.882812 81.859375 -88.46875 C 93.535156 -97.5625 103.695312 -106.050781 112.34375 -113.9375 C 114.007812 -115.300781 115.976562 -118.101562 118.25 -122.34375 L 121.4375 -127.796875 L 117.34375 -129.84375 C 116.882812 -130 115.859375 -130.414062 114.265625 -131.09375 C 112.679688 -131.78125 111.359375 -132.195312 110.296875 -132.34375 C 97.097656 -133.707031 82.316406 -134.921875 65.953125 -135.984375 C 60.796875 -136.441406 57.457031 -133.640625 55.9375 -127.578125 L 36.84375 -39.109375 C 35.78125 -34.566406 34.941406 -30.585938 34.328125 -27.171875 C 33.722656 -23.765625 33.195312 -20.921875 32.75 -18.640625 L 30.703125 -8.40625 C 30.097656 -5.988281 29.113281 -4.054688 27.75 -2.609375 C 26.382812 -1.171875 24.410156 -0.378906 21.828125 -0.234375 L 18.875 0 C 15.988281 0 13.976562 -0.679688 12.84375 -2.046875 C 11.707031 -3.410156 11.21875 -5.835938 11.375 -9.328125 L 11.828125 -18.421875 C 12.734375 -36.304688 13.867188 -49.722656 15.234375 -58.671875 C 16.140625 -65.191406 17.460938 -72.390625 19.203125 -80.265625 C 20.953125 -88.148438 22.128906 -93.304688 22.734375 -95.734375 C 24.859375 -104.523438 26.375 -111.195312 27.28125 -115.75 L 15.46875 -117.796875 C 13.644531 -121.734375 12.734375 -125.144531 12.734375 -128.03125 C 12.734375 -132.882812 15.007812 -137.8125 19.5625 -142.8125 C 22.738281 -146.445312 26.523438 -149.398438 30.921875 -151.671875 C 35.316406 -153.953125 39.867188 -155.472656 44.578125 -156.234375 C 51.398438 -156.984375 57.460938 -157.359375 62.765625 -157.359375 C 83.535156 -157.359375 104.609375 -152.960938 125.984375 -144.171875 C 128.554688 -143.109375 131.128906 -141.476562 133.703125 -139.28125 C 136.285156 -137.082031 137.957031 -135.679688 138.71875 -135.078125 C 144.632812 -130.078125 147.59375 -124.847656 147.59375 -119.390625 C 147.59375 -115.753906 146.453125 -111.734375 144.171875 -107.328125 C 142.960938 -104.753906 140.914062 -101.800781 138.03125 -98.46875 C 123.9375 -83 105.671875 -70.867188 83.234375 -62.078125 Z M 83.234375 -62.078125 "/></g></g><g style="fill:#ffffff;fill-opacity:1;"><g transform="translate(379.578558, 432.110471)"><path style="stroke:none" d="M 61.171875 -15.234375 C 56.472656 -12.359375 51.09375 -10.921875 45.03125 -10.921875 C 38.351562 -10.921875 31.941406 -12.625 25.796875 -16.03125 C 19.660156 -19.445312 14.773438 -24.335938 11.140625 -30.703125 C 7.503906 -37.066406 5.988281 -44.34375 6.59375 -52.53125 L 7.734375 -57.984375 C 8.640625 -63.441406 9.394531 -67.460938 10 -70.046875 C 11.363281 -75.648438 14.09375 -79.585938 18.1875 -81.859375 C 22.28125 -84.140625 27.738281 -85.960938 34.5625 -87.328125 C 38.957031 -88.234375 43.28125 -88.6875 47.53125 -88.6875 C 60.875 -88.6875 72.09375 -84.210938 81.1875 -75.265625 C 86.039062 -70.421875 88.46875 -64.507812 88.46875 -57.53125 C 88.46875 -50.707031 85.960938 -43.351562 80.953125 -35.46875 C 75.191406 -26.53125 68.597656 -19.785156 61.171875 -15.234375 Z M 42.0625 -77.09375 C 39.644531 -71.175781 37.070312 -63.820312 34.34375 -55.03125 L 32.0625 -48.203125 L 33.65625 -47.53125 C 33.65625 -46.46875 33.691406 -44.835938 33.765625 -42.640625 C 33.847656 -40.441406 34.113281 -38.582031 34.5625 -37.0625 C 36.226562 -32.363281 38.125 -29.484375 40.25 -28.421875 C 41.15625 -27.972656 42.476562 -28.203125 44.21875 -29.109375 C 45.96875 -30.015625 47.523438 -31.078125 48.890625 -32.296875 C 51.015625 -34.109375 54.425781 -37.894531 59.125 -43.65625 C 62.613281 -47.601562 64.359375 -52.304688 64.359375 -57.765625 C 64.359375 -62.460938 63.03125 -66.707031 60.375 -70.5 C 57.71875 -74.289062 54.039062 -76.867188 49.34375 -78.234375 C 48.894531 -78.378906 48.0625 -78.453125 46.84375 -78.453125 C 43.96875 -78.453125 42.375 -78 42.0625 -77.09375 Z M 42.0625 -77.09375 "/></g></g><g style="fill:#ffffff;fill-opacity:1;"><g transform="translate(493.279384, 432.110471)"><path style="stroke:none" d="M 37.515625 -10.453125 C 40.546875 -14.097656 42.742188 -16.984375 44.109375 -19.109375 C 45.785156 -21.378906 47.53125 -22.515625 49.34375 -22.515625 C 51.164062 -22.515625 52.53125 -21.378906 53.4375 -19.109375 C 55.5625 -13.035156 56.625 -8.257812 56.625 -4.78125 C 56.625 -3.257812 56.546875 -2.117188 56.390625 -1.359375 C 55.785156 1.671875 54.082031 3.789062 51.28125 5 C 48.476562 6.21875 45.179688 6.675781 41.390625 6.375 C 40.023438 6.375 37.710938 6.375 34.453125 6.375 C 31.191406 6.375 28.382812 5.914062 26.03125 5 C 23.6875 4.09375 21.601562 2.578125 19.78125 0.453125 C 15.84375 -4.242188 13.875 -8.789062 13.875 -13.1875 C 13.875 -48.664062 13.722656 -75.347656 13.421875 -93.234375 L 13.1875 -133.265625 C 13.1875 -138.566406 12.65625 -143.414062 11.59375 -147.8125 C 11.445312 -148.570312 11.375 -149.484375 11.375 -150.546875 C 11.375 -156.148438 15.160156 -158.953125 22.734375 -158.953125 C 27.742188 -158.953125 31.953125 -157.320312 35.359375 -154.0625 C 38.773438 -150.800781 40.332031 -146.519531 40.03125 -141.21875 C 39.570312 -133.1875 38.960938 -121.132812 38.203125 -105.0625 L 36.84375 -77.765625 C 35.625 -51.992188 34.789062 -32.664062 34.34375 -19.78125 C 34.1875 -18.269531 34.257812 -16.601562 34.5625 -14.78125 C 34.863281 -12.957031 35.09375 -11.820312 35.25 -11.375 Z M 37.515625 -10.453125 "/></g></g><g style="fill:#ffffff;fill-opacity:1;"><g transform="translate(573.552543, 432.110471)"><path style="stroke:none" d="M 80.734375 -11.59375 C 79.367188 -12.195312 78.003906 -12.5 76.640625 -12.5 C 75.273438 -12.5 74.097656 -12.15625 73.109375 -11.46875 C 72.128906 -10.789062 71.03125 -9.769531 69.8125 -8.40625 C 67.988281 -6.59375 66.09375 -5.078125 64.125 -3.859375 C 62.3125 -2.804688 58.976562 -1.820312 54.125 -0.90625 C 52 -0.601562 50.253906 -0.453125 48.890625 -0.453125 C 42.523438 -0.453125 35.890625 -1.851562 28.984375 -4.65625 C 22.085938 -7.46875 17.203125 -10.84375 14.328125 -14.78125 C 11.296875 -19.03125 9.851562 -23.578125 10 -28.421875 C 10.15625 -35.703125 13.191406 -42.976562 19.109375 -50.25 C 24.867188 -57.226562 30.132812 -62.15625 34.90625 -65.03125 C 39.675781 -67.914062 46.234375 -69.738281 54.578125 -70.5 C 56.398438 -70.5 59.015625 -70.800781 62.421875 -71.40625 C 65.835938 -72.007812 67.546875 -72.84375 67.546875 -73.90625 C 67.546875 -76.03125 66.597656 -77.960938 64.703125 -79.703125 C 62.804688 -81.453125 58.976562 -82.328125 53.21875 -82.328125 C 51.09375 -82.328125 47.90625 -82.171875 43.65625 -81.859375 C 39.414062 -81.554688 36.460938 -81.40625 34.796875 -81.40625 C 29.640625 -81.40625 25.925781 -82.238281 23.65625 -83.90625 C 23.039062 -84.21875 22.734375 -85.660156 22.734375 -88.234375 C 22.734375 -92.785156 24.328125 -95.664062 27.515625 -96.875 C 34.035156 -99.300781 40.78125 -100.585938 47.75 -100.734375 C 56.539062 -100.734375 64.6875 -98.800781 72.1875 -94.9375 C 79.695312 -91.070312 85.195312 -86.257812 88.6875 -80.5 C 92.175781 -74.738281 94.453125 -66.78125 95.515625 -56.625 C 96.722656 -45.25 97.328125 -30.769531 97.328125 -13.1875 C 97.328125 -8.332031 96.644531 -5.53125 95.28125 -4.78125 C 94.070312 -4.019531 92.9375 -3.640625 91.875 -3.640625 C 90.507812 -3.640625 89.257812 -4.054688 88.125 -4.890625 C 86.988281 -5.722656 85.738281 -6.894531 84.375 -8.40625 C 83.007812 -10.082031 81.796875 -11.144531 80.734375 -11.59375 Z M 44.796875 -14.328125 C 51.921875 -16.453125 58.894531 -19.863281 65.71875 -24.5625 C 67.238281 -25.625 68.601562 -26.988281 69.8125 -28.65625 C 71.03125 -30.320312 71.789062 -31.382812 72.09375 -31.84375 C 72.394531 -32.289062 72.65625 -33.613281 72.875 -35.8125 C 73.101562 -38.007812 73.144531 -39.789062 73 -41.15625 C 72.84375 -41.613281 72.578125 -42.828125 72.203125 -44.796875 C 71.828125 -46.765625 71.257812 -48.507812 70.5 -50.03125 C 69.738281 -51.238281 68.523438 -52.375 66.859375 -53.4375 C 65.191406 -54.5 63.675781 -54.957031 62.3125 -54.8125 C 59.425781 -54.65625 56.316406 -53.59375 52.984375 -51.625 C 49.648438 -49.65625 46.539062 -47 43.65625 -43.65625 C 40.78125 -40.175781 38.546875 -36.65625 36.953125 -33.09375 C 35.359375 -29.53125 34.5625 -26.234375 34.5625 -23.203125 C 34.863281 -19.109375 36.003906 -16.378906 37.984375 -15.015625 C 39.035156 -14.253906 40.320312 -13.875 41.84375 -13.875 C 43.050781 -13.875 44.035156 -14.023438 44.796875 -14.328125 Z M 44.796875 -14.328125 "/></g></g><g style="fill:#ffffff;fill-opacity:1;"><g transform="translate(704.535835, 432.110471)"><path style="stroke:none" d="M 41.390625 -96.421875 C 41.835938 -94.898438 41.910156 -92.550781 41.609375 -89.375 L 38.890625 -62.53125 C 39.648438 -63.144531 40.785156 -65.304688 42.296875 -69.015625 C 43.816406 -72.734375 45.257812 -75.765625 46.625 -78.109375 C 47.988281 -80.460938 49.046875 -82.019531 49.796875 -82.78125 C 56.921875 -89.601562 64.957031 -93.695312 73.90625 -95.0625 C 82.851562 -96.425781 92.707031 -97.03125 103.46875 -96.875 C 104.53125 -96.875 105.703125 -96.457031 106.984375 -95.625 C 108.273438 -94.789062 108.921875 -94.109375 108.921875 -93.578125 C 108.921875 -93.046875 108.46875 -92.210938 107.5625 -91.078125 C 106.65625 -89.941406 105.820312 -89.222656 105.0625 -88.921875 C 95.96875 -85.890625 87.96875 -82.398438 81.0625 -78.453125 C 74.164062 -74.515625 68.21875 -69.359375 63.21875 -62.984375 C 51.394531 -47.984375 44.570312 -32.519531 42.75 -16.59375 C 42.289062 -12.351562 41 -9.507812 38.875 -8.0625 C 36.757812 -6.625 33.804688 -5.90625 30.015625 -5.90625 C 25.773438 -5.90625 21.984375 -7.722656 18.640625 -11.359375 C 15.304688 -15.003906 13.640625 -19.023438 13.640625 -23.421875 C 13.796875 -39.492188 13.875 -63.597656 13.875 -95.734375 C 13.875 -100.128906 14.859375 -103.195312 16.828125 -104.9375 C 18.796875 -106.6875 22.359375 -107.5625 27.515625 -107.5625 C 31.304688 -107.5625 34.523438 -106.5 37.171875 -104.375 C 39.828125 -102.257812 41.234375 -99.609375 41.390625 -96.421875 Z M 41.390625 -96.421875 "/></g></g><g style="fill:#ffffff;fill-opacity:1;"><g transform="translate(825.740572, 432.110471)"><path style="stroke:none" d="M 61.171875 -15.234375 C 56.472656 -12.359375 51.09375 -10.921875 45.03125 -10.921875 C 38.351562 -10.921875 31.941406 -12.625 25.796875 -16.03125 C 19.660156 -19.445312 14.773438 -24.335938 11.140625 -30.703125 C 7.503906 -37.066406 5.988281 -44.34375 6.59375 -52.53125 L 7.734375 -57.984375 C 8.640625 -63.441406 9.394531 -67.460938 10 -70.046875 C 11.363281 -75.648438 14.09375 -79.585938 18.1875 -81.859375 C 22.28125 -84.140625 27.738281 -85.960938 34.5625 -87.328125 C 38.957031 -88.234375 43.28125 -88.6875 47.53125 -88.6875 C 60.875 -88.6875 72.09375 -84.210938 81.1875 -75.265625 C 86.039062 -70.421875 88.46875 -64.507812 88.46875 -57.53125 C 88.46875 -50.707031 85.960938 -43.351562 80.953125 -35.46875 C 75.191406 -26.53125 68.597656 -19.785156 61.171875 -15.234375 Z M 42.0625 -77.09375 C 39.644531 -71.175781 37.070312 -63.820312 34.34375 -55.03125 L 32.0625 -48.203125 L 33.65625 -47.53125 C 33.65625 -46.46875 33.691406 -44.835938 33.765625 -42.640625 C 33.847656 -40.441406 34.113281 -38.582031 34.5625 -37.0625 C 36.226562 -32.363281 38.125 -29.484375 40.25 -28.421875 C 41.15625 -27.972656 42.476562 -28.203125 44.21875 -29.109375 C 45.96875 -30.015625 47.523438 -31.078125 48.890625 -32.296875 C 51.015625 -34.109375 54.425781 -37.894531 59.125 -43.65625 C 62.613281 -47.601562 64.359375 -52.304688 64.359375 -57.765625 C 64.359375 -62.460938 63.03125 -66.707031 60.375 -70.5 C 57.71875 -74.289062 54.039062 -76.867188 49.34375 -78.234375 C 48.894531 -78.378906 48.0625 -78.453125 46.84375 -78.453125 C 43.96875 -78.453125 42.375 -78 42.0625 -77.09375 Z M 42.0625 -77.09375 "/></g></g><g style="fill:#ffffff;fill-opacity:1;"><g transform="translate(939.441399, 432.110471)"><path style="stroke:none" d="M 32.75 -105.96875 C 32.445312 -105.0625 31.347656 -104.078125 29.453125 -103.015625 C 27.554688 -101.953125 26 -100.96875 24.78125 -100.0625 L 18.421875 -103.46875 C 12.203125 -106.800781 7.957031 -109.453125 5.6875 -111.421875 C 4.46875 -112.335938 3.859375 -113.476562 3.859375 -114.84375 C 3.859375 -115.75 4.195312 -116.539062 4.875 -117.21875 C 5.5625 -117.90625 6.585938 -118.25 7.953125 -118.25 C 13.867188 -118.25 21.070312 -116.734375 29.5625 -113.703125 C 30.46875 -113.546875 31.300781 -112.519531 32.0625 -110.625 C 32.820312 -108.738281 33.050781 -107.1875 32.75 -105.96875 Z M 12.28125 -63.671875 C 12.738281 -65.640625 13.039062 -67.078125 13.1875 -67.984375 C 13.34375 -68.898438 13.421875 -69.890625 13.421875 -70.953125 C 13.421875 -73.078125 14.0625 -74.742188 15.34375 -75.953125 C 16.632812 -77.160156 19.097656 -77.765625 22.734375 -77.765625 C 26.984375 -77.765625 30.738281 -76.4375 34 -73.78125 C 37.257812 -71.132812 39.269531 -67.691406 40.03125 -63.453125 C 40.476562 -61.328125 40.773438 -58.972656 40.921875 -56.390625 C 41.078125 -53.816406 41.15625 -52.148438 41.15625 -51.390625 L 44.34375 -12.5 C 44.800781 -8.414062 44.234375 -5.269531 42.640625 -3.0625 C 41.046875 -0.863281 38.050781 0.234375 33.65625 0.234375 C 29.863281 0.234375 26.640625 -0.828125 23.984375 -2.953125 C 21.335938 -5.078125 19.710938 -7.804688 19.109375 -11.140625 L 13.1875 -59.359375 Z M 12.28125 -63.671875 "/></g></g><g style="fill:#ffffff;fill-opacity:1;"><g transform="translate(1010.618626, 432.110471)"><path style="stroke:none" d="M 97.78125 -26.609375 C 98.082031 -24.023438 99.222656 -20.6875 101.203125 -16.59375 C 101.503906 -15.84375 101.84375 -15.007812 102.21875 -14.09375 C 102.59375 -13.1875 103.007812 -12.128906 103.46875 -10.921875 C 98.3125 -8.035156 94.21875 -6.59375 91.1875 -6.59375 C 88.914062 -6.59375 86.789062 -7.3125 84.8125 -8.75 C 82.84375 -10.195312 80.648438 -12.507812 78.234375 -15.6875 C 76.410156 -17.8125 74.890625 -18.875 73.671875 -18.875 C 72.460938 -18.875 71.175781 -17.890625 69.8125 -15.921875 C 66.78125 -11.367188 63.023438 -7.957031 58.546875 -5.6875 C 54.078125 -3.414062 49.34375 -2.28125 44.34375 -2.28125 C 38.738281 -2.28125 33.316406 -3.601562 28.078125 -6.25 C 22.847656 -8.90625 18.796875 -12.507812 15.921875 -17.0625 C 12.890625 -21.757812 11.375 -28.734375 11.375 -37.984375 C 11.375 -44.648438 12.28125 -51.394531 14.09375 -58.21875 C 15.914062 -65.039062 18.492188 -70.648438 21.828125 -75.046875 C 25.460938 -80.046875 29.78125 -84.023438 34.78125 -86.984375 C 39.789062 -89.941406 45.328125 -91.421875 51.390625 -91.421875 C 53.359375 -91.421875 54.875 -91.34375 55.9375 -91.1875 C 56.394531 -91.039062 57.078125 -90.96875 57.984375 -90.96875 C 61.472656 -90.96875 63.21875 -92.632812 63.21875 -95.96875 L 62.984375 -97.78125 C 60.867188 -115.21875 58.976562 -128.03125 57.3125 -136.21875 C 57.15625 -136.976562 56.925781 -138.191406 56.625 -139.859375 C 56.320312 -141.523438 56.171875 -142.890625 56.171875 -143.953125 C 56.171875 -146.066406 56.625 -147.921875 57.53125 -149.515625 C 58.4375 -151.109375 60.03125 -152.4375 62.3125 -153.5 C 63.21875 -153.957031 64.28125 -154.1875 65.5 -154.1875 C 68.675781 -154.1875 72.007812 -153.160156 75.5 -151.109375 C 78.988281 -149.066406 81.035156 -146.753906 81.640625 -144.171875 C 83.910156 -134.773438 86.03125 -122.570312 88 -107.5625 L 92.09375 -73 C 94.519531 -52.375 96.414062 -36.910156 97.78125 -26.609375 Z M 37.0625 -55.03125 C 34.488281 -47.601562 33.203125 -40.78125 33.203125 -34.5625 C 33.203125 -25.925781 36.234375 -19.5625 42.296875 -15.46875 C 44.722656 -16.832031 46.65625 -18.382812 48.09375 -20.125 C 49.53125 -21.863281 51.238281 -24.40625 53.21875 -27.75 L 55.71875 -32.0625 C 59.195312 -37.0625 61.503906 -42.671875 62.640625 -48.890625 C 63.785156 -55.109375 64.507812 -62.992188 64.8125 -72.546875 C 64.957031 -73.910156 64.6875 -75.460938 64 -77.203125 C 63.320312 -78.941406 62.609375 -79.890625 61.859375 -80.046875 C 60.640625 -80.347656 58.585938 -80.003906 55.703125 -79.015625 C 52.828125 -78.035156 51.007812 -77.015625 50.25 -75.953125 C 46.769531 -71.859375 44.003906 -68.296875 41.953125 -65.265625 C 39.910156 -62.234375 38.28125 -58.820312 37.0625 -55.03125 Z M 37.0625 -55.03125 "/></g></g><g style="fill:#ffffff;fill-opacity:1;"><g transform="translate(1144.330542, 432.110471)"><path style="stroke:none" d="M 32.75 -105.96875 C 32.445312 -105.0625 31.347656 -104.078125 29.453125 -103.015625 C 27.554688 -101.953125 26 -100.96875 24.78125 -100.0625 L 18.421875 -103.46875 C 12.203125 -106.800781 7.957031 -109.453125 5.6875 -111.421875 C 4.46875 -112.335938 3.859375 -113.476562 3.859375 -114.84375 C 3.859375 -115.75 4.195312 -116.539062 4.875 -117.21875 C 5.5625 -117.90625 6.585938 -118.25 7.953125 -118.25 C 13.867188 -118.25 21.070312 -116.734375 29.5625 -113.703125 C 30.46875 -113.546875 31.300781 -112.519531 32.0625 -110.625 C 32.820312 -108.738281 33.050781 -107.1875 32.75 -105.96875 Z M 12.28125 -63.671875 C 12.738281 -65.640625 13.039062 -67.078125 13.1875 -67.984375 C 13.34375 -68.898438 13.421875 -69.890625 13.421875 -70.953125 C 13.421875 -73.078125 14.0625 -74.742188 15.34375 -75.953125 C 16.632812 -77.160156 19.097656 -77.765625 22.734375 -77.765625 C 26.984375 -77.765625 30.738281 -76.4375 34 -73.78125 C 37.257812 -71.132812 39.269531 -67.691406 40.03125 -63.453125 C 40.476562 -61.328125 40.773438 -58.972656 40.921875 -56.390625 C 41.078125 -53.816406 41.15625 -52.148438 41.15625 -51.390625 L 44.34375 -12.5 C 44.800781 -8.414062 44.234375 -5.269531 42.640625 -3.0625 C 41.046875 -0.863281 38.050781 0.234375 33.65625 0.234375 C 29.863281 0.234375 26.640625 -0.828125 23.984375 -2.953125 C 21.335938 -5.078125 19.710938 -7.804688 19.109375 -11.140625 L 13.1875 -59.359375 Z M 12.28125 -63.671875 "/></g></g><g style="fill:#ffffff;fill-opacity:1;"><g transform="translate(1215.507769, 432.110471)"><path style="stroke:none" d="M 30.703125 5 C 17.960938 5 9.851562 -0.457031 6.375 -11.375 C 7.582031 -11.375 9.207031 -11.332031 11.25 -11.25 C 13.300781 -11.175781 15.007812 -10.988281 16.375 -10.6875 C 18.5 -10.382812 20.015625 -10.234375 20.921875 -10.234375 C 27.742188 -10.234375 33.429688 -13.265625 37.984375 -19.328125 C 41.160156 -23.722656 42.75 -28.195312 42.75 -32.75 C 42.75 -35.78125 41.992188 -38.734375 40.484375 -41.609375 C 37.140625 -47.523438 33.046875 -54.046875 28.203125 -61.171875 C 25.015625 -65.867188 22.132812 -70.34375 19.5625 -74.59375 C 16.53125 -79.4375 15.015625 -84.816406 15.015625 -90.734375 C 15.015625 -96.191406 16.566406 -101.003906 19.671875 -105.171875 C 22.773438 -109.335938 27.359375 -111.953125 33.421875 -113.015625 L 40.703125 -114.390625 C 48.585938 -115.898438 54.5 -116.65625 58.4375 -116.65625 C 64.957031 -116.65625 70.71875 -115.140625 75.71875 -112.109375 C 76.78125 -111.347656 77.878906 -110.019531 79.015625 -108.125 C 80.160156 -106.238281 81.035156 -104.765625 81.640625 -103.703125 C 80.578125 -103.242188 79.097656 -102.519531 77.203125 -101.53125 C 75.304688 -100.550781 73.675781 -99.984375 72.3125 -99.828125 C 70.1875 -99.523438 67.003906 -99.375 62.765625 -99.375 C 58.671875 -99.375 55.5625 -99.300781 53.4375 -99.15625 C 48.582031 -98.695312 44.753906 -97.0625 41.953125 -94.25 C 39.148438 -91.445312 37.75 -88.078125 37.75 -84.140625 C 37.75 -81.109375 38.660156 -78 40.484375 -74.8125 C 44.578125 -67.988281 50.257812 -60.179688 57.53125 -51.390625 C 62.988281 -44.566406 65.71875 -37.519531 65.71875 -30.25 C 65.71875 -26.300781 64.804688 -22.128906 62.984375 -17.734375 C 56.773438 -2.578125 46.015625 5 30.703125 5 Z M 30.703125 5 "/></g></g><g style="fill:#ffffff;fill-opacity:1;"><g transform="translate(1311.698844, 432.110471)"><path style="stroke:none" d="M 37.0625 -121.4375 C 37.21875 -106.726562 37.632812 -94.632812 38.3125 -85.15625 C 39 -75.6875 40.628906 -65.644531 43.203125 -55.03125 C 49.578125 -57.300781 55.414062 -58.4375 60.71875 -58.4375 C 69.664062 -58.4375 77.394531 -55.785156 83.90625 -50.484375 C 90.425781 -45.179688 94.828125 -38.585938 97.109375 -30.703125 C 98.921875 -24.941406 99.828125 -17.207031 99.828125 -7.5 L 99.609375 10.234375 C 99.609375 11.296875 99 12.507812 97.78125 13.875 C 96.570312 15.238281 95.359375 16.070312 94.140625 16.375 C 93.691406 16.519531 93.007812 16.59375 92.09375 16.59375 C 88.613281 16.59375 84.976562 14.890625 81.1875 11.484375 C 77.394531 8.078125 75.421875 4.703125 75.265625 1.359375 L 74.8125 -10.453125 C 74.8125 -13.179688 74.660156 -17.125 74.359375 -22.28125 C 74.054688 -27.59375 73.453125 -31.382812 72.546875 -33.65625 C 71.628906 -36.226562 70.488281 -38.195312 69.125 -39.5625 C 67.757812 -40.925781 66.242188 -41.609375 64.578125 -41.609375 C 63.367188 -41.609375 62.039062 -41.078125 60.59375 -40.015625 C 59.15625 -38.960938 57.910156 -37.523438 56.859375 -35.703125 C 53.671875 -30.703125 49.5 -20.847656 44.34375 -6.140625 C 42.675781 -0.835938 39.71875 1.8125 35.46875 1.8125 C 35.019531 1.8125 34.035156 1.660156 32.515625 1.359375 C 31.609375 1.054688 29.863281 0.566406 27.28125 -0.109375 C 24.707031 -0.796875 22.703125 -1.894531 21.265625 -3.40625 C 19.828125 -4.925781 19.109375 -7.125 19.109375 -10 C 19.109375 -38.65625 17.363281 -62.382812 13.875 -81.1875 C 12.207031 -90.582031 11.375 -101.421875 11.375 -113.703125 L 11.375 -136.90625 C 11.375 -139.019531 12.507812 -140.832031 14.78125 -142.34375 C 17.050781 -143.863281 19.628906 -144.625 22.515625 -144.625 C 24.941406 -144.625 26.988281 -144.09375 28.65625 -143.03125 C 31.6875 -141.21875 33.84375 -138.945312 35.125 -136.21875 C 36.414062 -133.488281 37.0625 -130.078125 37.0625 -125.984375 Z M 37.0625 -121.4375 "/></g></g><g style="fill:#facc0b;fill-opacity:1;"><g transform="translate(55.732998, 427.066998)"><path style="stroke:none" d="M 4.078125 -73.15625 C 4.078125 -94.289062 11.28125 -112.175781 25.6875 -126.8125 C 40.09375 -141.457031 57.453125 -148.78125 77.765625 -148.78125 C 98.191406 -148.78125 115.546875 -141.488281 129.828125 -126.90625 C 144.117188 -112.320312 151.265625 -94.40625 151.265625 -73.15625 C 151.265625 -51.78125 144.238281 -33.800781 130.1875 -19.21875 C 116.132812 -4.632812 98.660156 2.65625 77.765625 2.65625 C 56.390625 2.65625 38.765625 -4.570312 24.890625 -19.03125 C 11.015625 -33.5 4.078125 -51.539062 4.078125 -73.15625 Z M 40.03125 -73.15625 C 40.03125 -65.476562 41.207031 -58.476562 43.5625 -52.15625 C 45.925781 -45.84375 50.0625 -40.5 55.96875 -36.125 C 61.875 -31.757812 69.140625 -29.578125 77.765625 -29.578125 C 90.160156 -29.578125 99.515625 -33.828125 105.828125 -42.328125 C 112.148438 -50.828125 115.3125 -61.101562 115.3125 -73.15625 C 115.3125 -85.082031 112.09375 -95.320312 105.65625 -103.875 C 99.21875 -112.4375 89.921875 -116.71875 77.765625 -116.71875 C 65.710938 -116.71875 56.410156 -112.4375 49.859375 -103.875 C 43.304688 -95.320312 40.03125 -85.082031 40.03125 -73.15625 Z M 40.03125 -73.15625 "/></g></g><g style="fill:#000000;fill-opacity:1;"><g transform="translate(38.014975, 488.946741)"><path style="stroke:none" d="M 13.875 -3.59375 C 13.164062 -2.800781 12.445312 -2.175781 11.71875 -1.71875 C 10.988281 -1.257812 10.175781 -1.03125 9.28125 -1.03125 C 9.09375 -1.03125 8.832031 -1.050781 8.5 -1.09375 L 7.796875 -1.0625 C 4.835938 -1.039062 2.675781 -2.453125 1.3125 -5.296875 C 1 -5.953125 0.84375 -6.738281 0.84375 -7.65625 C 0.84375 -8.457031 0.957031 -9.222656 1.1875 -9.953125 C 1.425781 -10.679688 1.757812 -11.28125 2.1875 -11.75 L 2.859375 -12.5625 C 3.191406 -12.988281 3.453125 -13.285156 3.640625 -13.453125 C 4.460938 -14.242188 5.554688 -14.640625 6.921875 -14.640625 C 7.628906 -14.640625 8.320312 -14.519531 9 -14.28125 C 9.6875 -14.050781 10.285156 -13.738281 10.796875 -13.34375 C 10.890625 -13.269531 10.984375 -13.117188 11.078125 -12.890625 C 11.171875 -12.671875 11.21875 -12.492188 11.21875 -12.359375 C 11.21875 -12.171875 11.078125 -11.960938 10.796875 -11.734375 C 10.515625 -11.515625 10.257812 -11.414062 10.03125 -11.4375 C 8.425781 -11.625 7.140625 -11.238281 6.171875 -10.28125 C 5.210938 -9.332031 4.734375 -8.035156 4.734375 -6.390625 C 4.734375 -5.304688 4.960938 -4.539062 5.421875 -4.09375 C 5.878906 -3.644531 6.632812 -3.421875 7.6875 -3.421875 C 8.351562 -3.421875 8.976562 -3.554688 9.5625 -3.828125 C 10.15625 -4.097656 10.835938 -4.484375 11.609375 -4.984375 L 12.28125 -5.40625 C 12.519531 -5.519531 12.832031 -5.59375 13.21875 -5.625 C 13.601562 -5.664062 13.90625 -5.695312 14.125 -5.71875 C 14.09375 -5.507812 14.082031 -5.300781 14.09375 -5.09375 C 14.113281 -4.894531 14.125 -4.738281 14.125 -4.625 C 14.125 -4.101562 14.039062 -3.757812 13.875 -3.59375 Z M 13.875 -3.59375 "/></g></g><g style="fill:#000000;fill-opacity:1;"><g transform="translate(53.187018, 488.946741)"><path style="stroke:none" d="M 12.53125 -1.796875 C 12.320312 -1.890625 12.109375 -1.9375 11.890625 -1.9375 C 11.679688 -1.9375 11.5 -1.882812 11.34375 -1.78125 C 11.195312 -1.675781 11.03125 -1.519531 10.84375 -1.3125 C 10.550781 -1.019531 10.253906 -0.78125 9.953125 -0.59375 C 9.671875 -0.4375 9.15625 -0.285156 8.40625 -0.140625 C 8.070312 -0.0976562 7.800781 -0.078125 7.59375 -0.078125 C 6.601562 -0.078125 5.570312 -0.289062 4.5 -0.71875 C 3.425781 -1.15625 2.664062 -1.679688 2.21875 -2.296875 C 1.75 -2.953125 1.523438 -3.65625 1.546875 -4.40625 C 1.578125 -5.539062 2.050781 -6.671875 2.96875 -7.796875 C 3.863281 -8.878906 4.679688 -9.644531 5.421875 -10.09375 C 6.160156 -10.539062 7.175781 -10.820312 8.46875 -10.9375 C 8.75 -10.9375 9.15625 -10.984375 9.6875 -11.078125 C 10.21875 -11.171875 10.484375 -11.300781 10.484375 -11.46875 C 10.484375 -11.800781 10.332031 -12.101562 10.03125 -12.375 C 9.738281 -12.644531 9.148438 -12.78125 8.265625 -12.78125 C 7.929688 -12.78125 7.4375 -12.753906 6.78125 -12.703125 C 6.113281 -12.660156 5.65625 -12.640625 5.40625 -12.640625 C 4.601562 -12.640625 4.023438 -12.769531 3.671875 -13.03125 C 3.578125 -13.070312 3.53125 -13.289062 3.53125 -13.6875 C 3.53125 -14.394531 3.773438 -14.84375 4.265625 -15.03125 C 5.273438 -15.40625 6.320312 -15.609375 7.40625 -15.640625 C 8.769531 -15.640625 10.035156 -15.335938 11.203125 -14.734375 C 12.367188 -14.140625 13.222656 -13.394531 13.765625 -12.5 C 14.304688 -11.601562 14.660156 -10.363281 14.828125 -8.78125 C 15.015625 -7.019531 15.109375 -4.773438 15.109375 -2.046875 C 15.109375 -1.296875 15.003906 -0.859375 14.796875 -0.734375 C 14.597656 -0.617188 14.421875 -0.5625 14.265625 -0.5625 C 14.046875 -0.5625 13.847656 -0.625 13.671875 -0.75 C 13.492188 -0.882812 13.300781 -1.070312 13.09375 -1.3125 C 12.882812 -1.5625 12.695312 -1.722656 12.53125 -1.796875 Z M 6.953125 -2.21875 C 8.054688 -2.550781 9.140625 -3.082031 10.203125 -3.8125 C 10.429688 -3.976562 10.640625 -4.1875 10.828125 -4.4375 C 11.023438 -4.695312 11.144531 -4.863281 11.1875 -4.9375 C 11.238281 -5.007812 11.28125 -5.21875 11.3125 -5.5625 C 11.34375 -5.90625 11.347656 -6.179688 11.328125 -6.390625 C 11.304688 -6.460938 11.265625 -6.648438 11.203125 -6.953125 C 11.148438 -7.253906 11.0625 -7.523438 10.9375 -7.765625 C 10.820312 -7.953125 10.632812 -8.128906 10.375 -8.296875 C 10.113281 -8.460938 9.878906 -8.53125 9.671875 -8.5 C 9.222656 -8.476562 8.738281 -8.3125 8.21875 -8 C 7.707031 -7.695312 7.226562 -7.289062 6.78125 -6.78125 C 6.332031 -6.238281 5.984375 -5.691406 5.734375 -5.140625 C 5.484375 -4.585938 5.359375 -4.070312 5.359375 -3.59375 C 5.410156 -2.957031 5.585938 -2.535156 5.890625 -2.328125 C 6.054688 -2.210938 6.257812 -2.15625 6.5 -2.15625 C 6.6875 -2.15625 6.835938 -2.175781 6.953125 -2.21875 Z M 6.953125 -2.21875 "/></g></g><g style="fill:#000000;fill-opacity:1;"><g transform="translate(70.264527, 488.946741)"><path style="stroke:none" d="M 10.265625 -2.828125 C 9.566406 -2.066406 8.804688 -1.6875 7.984375 -1.6875 C 7.296875 -1.6875 6.578125 -1.910156 5.828125 -2.359375 L 5.71875 0.84375 C 5.601562 3.195312 5.546875 5.242188 5.546875 6.984375 C 5.546875 7.316406 5.566406 7.835938 5.609375 8.546875 C 5.660156 9.242188 5.6875 9.757812 5.6875 10.09375 C 5.6875 10.445312 5.671875 10.707031 5.640625 10.875 C 5.617188 11.082031 5.476562 11.3125 5.21875 11.5625 C 4.957031 11.8125 4.703125 11.96875 4.453125 12.03125 C 4.265625 12.082031 4.132812 12.109375 4.0625 12.109375 C 3.519531 12.109375 2.992188 11.867188 2.484375 11.390625 C 1.984375 10.921875 1.742188 10.429688 1.765625 9.921875 C 1.804688 8.148438 1.898438 5.597656 2.046875 2.265625 L 2.296875 -5.4375 C 2.335938 -6.84375 2.253906 -8.03125 2.046875 -9 C 2.003906 -9.28125 1.984375 -9.46875 1.984375 -9.5625 C 1.984375 -9.9375 2.09375 -10.226562 2.3125 -10.4375 C 2.53125 -10.65625 2.832031 -10.789062 3.21875 -10.84375 C 3.800781 -10.882812 4.269531 -11.039062 4.625 -11.3125 C 4.976562 -11.582031 5.390625 -12.007812 5.859375 -12.59375 C 6.703125 -13.65625 7.628906 -14.1875 8.640625 -14.1875 C 9.773438 -14.1875 11.0625 -13.492188 12.5 -12.109375 C 13.15625 -11.472656 13.484375 -10.613281 13.484375 -9.53125 C 13.484375 -9.132812 13.445312 -8.734375 13.375 -8.328125 C 13.207031 -7.335938 12.859375 -6.421875 12.328125 -5.578125 C 11.804688 -4.734375 11.117188 -3.816406 10.265625 -2.828125 Z M 6.984375 -8.71875 C 6.472656 -7.300781 6.21875 -6.039062 6.21875 -4.9375 C 6.21875 -4.675781 6.226562 -4.488281 6.25 -4.375 L 6.671875 -4.171875 C 7.140625 -4.304688 7.632812 -4.710938 8.15625 -5.390625 C 8.675781 -6.078125 9.101562 -6.847656 9.4375 -7.703125 C 9.78125 -8.566406 9.953125 -9.328125 9.953125 -9.984375 C 9.953125 -10.265625 9.894531 -10.550781 9.78125 -10.84375 C 9.613281 -11.144531 9.363281 -11.296875 9.03125 -11.296875 C 8.613281 -11.296875 8.3125 -11.144531 8.125 -10.84375 C 8.050781 -10.738281 7.882812 -10.472656 7.625 -10.046875 C 7.363281 -9.628906 7.148438 -9.1875 6.984375 -8.71875 Z M 6.984375 -8.71875 "/></g></g><g style="fill:#000000;fill-opacity:1;"><g transform="translate(85.507275, 488.946741)"><path style="stroke:none" d="M 1.203125 -13.171875 C 1.035156 -13.359375 0.921875 -13.554688 0.859375 -13.765625 C 0.804688 -13.972656 0.753906 -14.265625 0.703125 -14.640625 C 0.921875 -15.140625 1.3125 -15.390625 1.875 -15.390625 C 2.15625 -15.335938 2.351562 -15.3125 2.46875 -15.3125 C 2.9375 -15.3125 3.226562 -15.453125 3.34375 -15.734375 C 3.46875 -16.023438 3.53125 -16.359375 3.53125 -16.734375 C 3.53125 -17.109375 3.53125 -17.398438 3.53125 -17.609375 L 3.640625 -19.734375 C 3.660156 -20.203125 3.6875 -20.78125 3.71875 -21.46875 C 3.757812 -22.164062 3.800781 -22.972656 3.84375 -23.890625 C 3.863281 -24.390625 3.984375 -24.753906 4.203125 -24.984375 C 4.429688 -25.222656 4.75 -25.34375 5.15625 -25.34375 C 5.4375 -25.34375 5.660156 -25.316406 5.828125 -25.265625 C 6.785156 -25.054688 7.429688 -24.75 7.765625 -24.34375 C 8.097656 -23.945312 8.320312 -23.351562 8.4375 -22.5625 C 8.457031 -22.394531 8.429688 -22.050781 8.359375 -21.53125 L 7.734375 -16.03125 C 7.703125 -15.882812 7.660156 -15.710938 7.609375 -15.515625 C 7.566406 -15.316406 7.546875 -15.171875 7.546875 -15.078125 C 7.546875 -14.859375 7.664062 -14.710938 7.90625 -14.640625 C 8.144531 -14.578125 8.582031 -14.554688 9.21875 -14.578125 C 10.300781 -14.816406 11.125 -14.96875 11.6875 -15.03125 C 11.800781 -15.0625 11.988281 -15.078125 12.25 -15.078125 C 12.53125 -15.078125 12.71875 -15.039062 12.8125 -14.96875 C 12.90625 -14.914062 12.976562 -14.773438 13.03125 -14.546875 C 13.09375 -14.328125 13.125 -14.078125 13.125 -13.796875 C 13.125 -13.535156 13.09375 -13.300781 13.03125 -13.09375 C 12.976562 -12.882812 12.90625 -12.765625 12.8125 -12.734375 C 12.175781 -12.546875 11.421875 -12.394531 10.546875 -12.28125 C 9.515625 -12.09375 8.753906 -11.929688 8.265625 -11.796875 C 8.003906 -11.722656 7.742188 -11.546875 7.484375 -11.265625 C 7.222656 -10.984375 7.082031 -10.722656 7.0625 -10.484375 C 7.007812 -9.328125 6.972656 -8.148438 6.953125 -6.953125 C 6.929688 -6.035156 6.96875 -5.117188 7.0625 -4.203125 C 7.132812 -3.421875 7.285156 -2.859375 7.515625 -2.515625 C 7.753906 -2.179688 8.109375 -2.015625 8.578125 -2.015625 C 8.953125 -2.015625 9.492188 -2.144531 10.203125 -2.40625 C 10.578125 -2.5625 10.90625 -2.640625 11.1875 -2.640625 C 11.632812 -2.640625 11.953125 -2.394531 12.140625 -1.90625 C 12.210938 -1.738281 12.25 -1.570312 12.25 -1.40625 C 12.25 -1.101562 12.132812 -0.859375 11.90625 -0.671875 C 11.6875 -0.484375 11.390625 -0.316406 11.015625 -0.171875 C 10.304688 0.0859375 9.585938 0.226562 8.859375 0.25 C 7.867188 0.25 6.9375 0.0078125 6.0625 -0.46875 C 5.195312 -0.957031 4.507812 -1.632812 4 -2.5 C 3.5 -3.375 3.285156 -4.375 3.359375 -5.5 C 3.378906 -5.945312 3.390625 -6.65625 3.390625 -7.625 C 3.390625 -9.15625 3.332031 -10.707031 3.21875 -12.28125 C 3.1875 -12.425781 3.097656 -12.523438 2.953125 -12.578125 C 2.816406 -12.640625 2.585938 -12.707031 2.265625 -12.78125 C 1.722656 -12.875 1.367188 -13.003906 1.203125 -13.171875 Z M 1.203125 -13.171875 "/></g></g><g style="fill:#000000;fill-opacity:1;"><g transform="translate(99.620911, 488.946741)"><path style="stroke:none" d="M 4.796875 -14.828125 C 5.390625 -14.660156 5.804688 -14.457031 6.046875 -14.21875 C 6.296875 -13.988281 6.421875 -13.671875 6.421875 -13.265625 C 6.421875 -13.078125 6.382812 -12.832031 6.3125 -12.53125 C 6.0625 -11.46875 5.921875 -10.410156 5.890625 -9.359375 C 5.867188 -8.148438 6.054688 -7.039062 6.453125 -6.03125 C 6.597656 -5.675781 6.734375 -5.421875 6.859375 -5.265625 C 6.992188 -5.117188 7.15625 -5.046875 7.34375 -5.046875 C 7.570312 -5.046875 7.878906 -5.257812 8.265625 -5.6875 C 9.128906 -6.71875 9.773438 -7.75 10.203125 -8.78125 C 10.628906 -9.820312 10.890625 -10.894531 10.984375 -12 C 11.046875 -12.726562 11.160156 -13.1875 11.328125 -13.375 C 11.421875 -13.46875 11.570312 -13.523438 11.78125 -13.546875 C 12 -13.578125 12.304688 -13.59375 12.703125 -13.59375 C 13.335938 -13.539062 13.78125 -13.476562 14.03125 -13.40625 C 14.28125 -13.34375 14.453125 -13.226562 14.546875 -13.0625 C 14.640625 -12.894531 14.6875 -12.625 14.6875 -12.25 L 14.640625 -10.59375 C 14.640625 -10.238281 14.628906 -9.71875 14.609375 -9.03125 C 14.535156 -6.914062 14.476562 -5.34375 14.4375 -4.3125 C 14.414062 -3.488281 14.164062 -2.453125 13.6875 -1.203125 C 13.644531 -1.128906 13.515625 -1.023438 13.296875 -0.890625 C 13.085938 -0.765625 12.898438 -0.691406 12.734375 -0.671875 C 12.691406 -0.671875 12.59375 -0.742188 12.4375 -0.890625 C 12.289062 -1.046875 12.179688 -1.1875 12.109375 -1.3125 C 11.941406 -1.6875 11.753906 -2.191406 11.546875 -2.828125 L 11.265625 -3.5 L 11.1875 -3.703125 L 11.078125 -3.59375 L 10.515625 -3.25 C 10.234375 -3.007812 9.925781 -2.820312 9.59375 -2.6875 C 9.050781 -2.351562 8.40625 -2.1875 7.65625 -2.1875 C 6.71875 -2.1875 5.820312 -2.453125 4.96875 -2.984375 C 4.125 -3.515625 3.457031 -4.238281 2.96875 -5.15625 C 2.164062 -6.5625 1.765625 -8.195312 1.765625 -10.0625 C 1.765625 -11 1.894531 -12.1875 2.15625 -13.625 C 2.195312 -13.976562 2.421875 -14.285156 2.828125 -14.546875 C 3.179688 -14.804688 3.59375 -14.9375 4.0625 -14.9375 C 4.289062 -14.9375 4.535156 -14.898438 4.796875 -14.828125 Z M 4.796875 -14.828125 "/></g></g><g style="fill:#000000;fill-opacity:1;"><g transform="translate(117.08683, 488.946741)"><path style="stroke:none" d="M 6.421875 -14.96875 C 6.492188 -14.726562 6.503906 -14.363281 6.453125 -13.875 L 6.03125 -9.703125 C 6.15625 -9.796875 6.332031 -10.128906 6.5625 -10.703125 C 6.800781 -11.285156 7.023438 -11.757812 7.234375 -12.125 C 7.441406 -12.488281 7.609375 -12.726562 7.734375 -12.84375 C 8.835938 -13.90625 10.082031 -14.539062 11.46875 -14.75 C 12.851562 -14.96875 14.382812 -15.0625 16.0625 -15.03125 C 16.226562 -15.03125 16.410156 -14.960938 16.609375 -14.828125 C 16.804688 -14.703125 16.90625 -14.597656 16.90625 -14.515625 C 16.90625 -14.441406 16.832031 -14.316406 16.6875 -14.140625 C 16.550781 -13.960938 16.425781 -13.847656 16.3125 -13.796875 C 14.894531 -13.328125 13.648438 -12.785156 12.578125 -12.171875 C 11.515625 -11.566406 10.59375 -10.769531 9.8125 -9.78125 C 7.976562 -7.445312 6.921875 -5.046875 6.640625 -2.578125 C 6.566406 -1.921875 6.363281 -1.476562 6.03125 -1.25 C 5.707031 -1.03125 5.25 -0.921875 4.65625 -0.921875 C 4 -0.921875 3.410156 -1.203125 2.890625 -1.765625 C 2.378906 -2.328125 2.125 -2.953125 2.125 -3.640625 C 2.144531 -6.128906 2.15625 -9.867188 2.15625 -14.859375 C 2.15625 -15.546875 2.304688 -16.023438 2.609375 -16.296875 C 2.921875 -16.566406 3.472656 -16.703125 4.265625 -16.703125 C 4.859375 -16.703125 5.359375 -16.535156 5.765625 -16.203125 C 6.179688 -15.867188 6.398438 -15.457031 6.421875 -14.96875 Z M 6.421875 -14.96875 "/></g></g><g style="fill:#000000;fill-opacity:1;"><g transform="translate(132.576152, 488.946741)"><path style="stroke:none" d="M 5.078125 -16.453125 C 5.035156 -16.304688 4.863281 -16.148438 4.5625 -15.984375 C 4.269531 -15.828125 4.03125 -15.675781 3.84375 -15.53125 L 2.859375 -16.0625 C 1.890625 -16.582031 1.226562 -16.992188 0.875 -17.296875 C 0.6875 -17.429688 0.59375 -17.609375 0.59375 -17.828125 C 0.59375 -17.960938 0.644531 -18.082031 0.75 -18.1875 C 0.863281 -18.300781 1.023438 -18.359375 1.234375 -18.359375 C 2.148438 -18.359375 3.269531 -18.125 4.59375 -17.65625 C 4.726562 -17.625 4.851562 -17.460938 4.96875 -17.171875 C 5.09375 -16.878906 5.128906 -16.640625 5.078125 -16.453125 Z M 1.90625 -9.890625 C 1.976562 -10.191406 2.023438 -10.410156 2.046875 -10.546875 C 2.066406 -10.691406 2.078125 -10.847656 2.078125 -11.015625 C 2.078125 -11.335938 2.175781 -11.59375 2.375 -11.78125 C 2.582031 -11.976562 2.96875 -12.078125 3.53125 -12.078125 C 4.1875 -12.078125 4.765625 -11.867188 5.265625 -11.453125 C 5.773438 -11.046875 6.09375 -10.507812 6.21875 -9.84375 C 6.28125 -9.519531 6.320312 -9.15625 6.34375 -8.75 C 6.375 -8.351562 6.390625 -8.097656 6.390625 -7.984375 L 6.890625 -1.9375 C 6.953125 -1.300781 6.859375 -0.8125 6.609375 -0.46875 C 6.367188 -0.132812 5.90625 0.03125 5.21875 0.03125 C 4.632812 0.03125 4.132812 -0.128906 3.71875 -0.453125 C 3.3125 -0.785156 3.0625 -1.210938 2.96875 -1.734375 L 2.046875 -9.21875 Z M 1.90625 -9.890625 "/></g></g><g style="fill:#000000;fill-opacity:1;"><g transform="translate(140.691506, 488.946741)"><path style="stroke:none" d="M 7.40625 -13.3125 C 7.40625 -13.164062 7.378906 -12.976562 7.328125 -12.75 C 7.285156 -12.53125 7.28125 -12.382812 7.3125 -12.3125 C 8.925781 -12.664062 10.300781 -12.84375 11.4375 -12.84375 C 13.195312 -12.84375 14.523438 -12 15.421875 -10.3125 C 16.148438 -8.875 16.515625 -7.285156 16.515625 -5.546875 C 16.515625 -5.097656 16.46875 -4.445312 16.375 -3.59375 C 16.300781 -3.03125 16.078125 -2.578125 15.703125 -2.234375 C 15.328125 -1.898438 14.878906 -1.734375 14.359375 -1.734375 C 13.816406 -1.734375 13.4375 -1.832031 13.21875 -2.03125 C 13 -2.226562 12.867188 -2.457031 12.828125 -2.71875 C 12.796875 -2.976562 12.78125 -3.390625 12.78125 -3.953125 L 12.734375 -4.6875 C 12.691406 -6.101562 12.597656 -7.328125 12.453125 -8.359375 C 12.390625 -8.785156 12.234375 -9.085938 11.984375 -9.265625 C 11.734375 -9.441406 11.410156 -9.53125 11.015625 -9.53125 C 10.640625 -9.53125 10.191406 -9.472656 9.671875 -9.359375 C 8.867188 -9.140625 8.332031 -8.972656 8.0625 -8.859375 C 7.789062 -8.742188 7.398438 -8.5 6.890625 -8.125 C 6.722656 -8 6.601562 -7.757812 6.53125 -7.40625 C 6.457031 -7.0625 6.421875 -6.863281 6.421875 -6.8125 C 6.117188 -5.300781 5.789062 -3.5 5.4375 -1.40625 C 5.414062 -1.3125 5.367188 -1.085938 5.296875 -0.734375 C 5.222656 -0.390625 5.085938 -0.140625 4.890625 0.015625 C 4.691406 0.171875 4.40625 0.222656 4.03125 0.171875 C 2.539062 -0.015625 1.785156 -0.632812 1.765625 -1.6875 C 1.742188 -3.050781 1.847656 -4.664062 2.078125 -6.53125 C 2.242188 -7.875 2.398438 -8.957031 2.546875 -9.78125 C 2.585938 -10.15625 2.648438 -10.613281 2.734375 -11.15625 C 2.816406 -11.695312 2.894531 -12.320312 2.96875 -13.03125 C 3.039062 -13.570312 3.109375 -13.96875 3.171875 -14.21875 C 3.242188 -14.476562 3.410156 -14.695312 3.671875 -14.875 C 3.929688 -15.050781 4.332031 -15.140625 4.875 -15.140625 C 5.550781 -15.140625 6.113281 -14.984375 6.5625 -14.671875 C 7.007812 -14.367188 7.289062 -13.9375 7.40625 -13.375 Z M 7.40625 -13.3125 "/></g></g><g style="fill:#000000;fill-opacity:1;"><g transform="translate(158.933395, 488.946741)"><path style="stroke:none" d="M 13.265625 -8.890625 C 13.203125 -7.203125 13.085938 -5.921875 12.921875 -5.046875 C 12.753906 -4.171875 12.425781 -3.335938 11.9375 -2.546875 C 11.457031 -1.765625 10.675781 -0.859375 9.59375 0.171875 L 10.84375 0.84375 C 11.59375 1.269531 12.144531 1.566406 12.5 1.734375 C 13.550781 2.222656 14.347656 2.847656 14.890625 3.609375 C 15.429688 4.378906 15.703125 5.222656 15.703125 6.140625 C 15.703125 7.265625 15.328125 8.382812 14.578125 9.5 C 13.773438 10.675781 12.773438 11.550781 11.578125 12.125 C 10.378906 12.695312 9.097656 13 7.734375 13.03125 C 6.722656 13.050781 5.6875 12.882812 4.625 12.53125 C 4.125 12.363281 3.628906 12.003906 3.140625 11.453125 C 2.648438 10.898438 2.253906 10.28125 1.953125 9.59375 C 1.660156 8.914062 1.523438 8.316406 1.546875 7.796875 C 1.578125 7.679688 1.625 7.554688 1.6875 7.421875 C 1.757812 7.296875 1.84375 7.222656 1.9375 7.203125 C 1.96875 7.179688 2.015625 7.171875 2.078125 7.171875 C 2.148438 7.171875 2.25 7.195312 2.375 7.25 C 2.507812 7.3125 2.597656 7.351562 2.640625 7.375 C 2.765625 7.425781 2.847656 7.53125 2.890625 7.6875 C 3.222656 8.414062 3.585938 8.992188 3.984375 9.421875 C 4.390625 9.847656 4.921875 10.035156 5.578125 9.984375 C 8.003906 9.816406 9.660156 9.148438 10.546875 7.984375 C 10.859375 7.597656 11.113281 7.164062 11.3125 6.6875 C 11.507812 6.207031 11.609375 5.753906 11.609375 5.328125 C 11.609375 4.710938 11.460938 4.265625 11.171875 3.984375 C 10.878906 3.703125 10.425781 3.503906 9.8125 3.390625 C 9.15625 3.273438 8.523438 3.109375 7.921875 2.890625 C 7.328125 2.679688 6.601562 2.363281 5.75 1.9375 C 5.332031 1.726562 5.039062 1.539062 4.875 1.375 C 4.707031 1.207031 4.625 1.007812 4.625 0.78125 C 4.625 0.539062 4.765625 -0.0625 5.046875 -1.03125 C 5.097656 -1.164062 4.878906 -1.394531 4.390625 -1.71875 C 3.910156 -2.050781 3.492188 -2.328125 3.140625 -2.546875 C 1.867188 -3.296875 1.234375 -4.519531 1.234375 -6.21875 C 1.234375 -6.6875 1.269531 -7.128906 1.34375 -7.546875 C 1.769531 -10.140625 3.03125 -11.976562 5.125 -13.0625 C 5.613281 -13.320312 6.128906 -13.453125 6.671875 -13.453125 C 7.066406 -13.453125 7.476562 -13.390625 7.90625 -13.265625 C 8.332031 -13.148438 8.578125 -13.082031 8.640625 -13.0625 L 9.390625 -12.84375 C 9.742188 -12.75 10.082031 -12.703125 10.40625 -12.703125 C 10.851562 -12.703125 11.257812 -12.785156 11.625 -12.953125 C 11.988281 -13.117188 12.359375 -13.378906 12.734375 -13.734375 C 13.273438 -14.179688 13.851562 -14.40625 14.46875 -14.40625 C 14.914062 -14.40625 15.316406 -14.28125 15.671875 -14.03125 C 16.023438 -13.78125 16.285156 -13.421875 16.453125 -12.953125 C 16.492188 -12.765625 16.515625 -12.613281 16.515625 -12.5 C 16.515625 -12.28125 16.476562 -12.113281 16.40625 -12 C 16.34375 -11.90625 16.144531 -11.597656 15.8125 -11.078125 C 15.644531 -10.773438 15.488281 -10.515625 15.34375 -10.296875 C 15.207031 -10.085938 14.988281 -9.851562 14.6875 -9.59375 C 14.46875 -9.476562 14.238281 -9.390625 14 -9.328125 C 13.769531 -9.273438 13.585938 -9.222656 13.453125 -9.171875 C 13.328125 -9.128906 13.265625 -9.035156 13.265625 -8.890625 Z M 5.859375 -9.421875 C 5.128906 -8.578125 4.765625 -7.71875 4.765625 -6.84375 C 4.765625 -6.238281 4.957031 -5.65625 5.34375 -5.09375 C 5.738281 -4.539062 6.332031 -4.066406 7.125 -3.671875 C 8.019531 -4.023438 8.710938 -4.632812 9.203125 -5.5 C 9.703125 -6.375 9.953125 -7.328125 9.953125 -8.359375 C 9.953125 -8.992188 9.859375 -9.570312 9.671875 -10.09375 C 9.484375 -10.613281 9.109375 -11.015625 8.546875 -11.296875 C 7.460938 -10.867188 6.566406 -10.242188 5.859375 -9.421875 Z M 5.859375 -9.421875 "/></g></g><g style="fill:#000000;fill-opacity:1;"><g transform="translate(175.869792, 488.946741)"><path style="stroke:none" d=""/></g></g><g style="fill:#000000;fill-opacity:1;"><g transform="translate(184.690835, 488.946741)"><path style="stroke:none" d="M 5.828125 -1.625 C 6.296875 -2.1875 6.632812 -2.632812 6.84375 -2.96875 C 7.101562 -3.320312 7.375 -3.5 7.65625 -3.5 C 7.9375 -3.5 8.148438 -3.320312 8.296875 -2.96875 C 8.617188 -2.019531 8.78125 -1.273438 8.78125 -0.734375 C 8.78125 -0.503906 8.769531 -0.332031 8.75 -0.21875 C 8.65625 0.257812 8.390625 0.59375 7.953125 0.78125 C 7.523438 0.96875 7.015625 1.035156 6.421875 0.984375 C 6.210938 0.984375 5.851562 0.984375 5.34375 0.984375 C 4.84375 0.984375 4.410156 0.910156 4.046875 0.765625 C 3.679688 0.628906 3.359375 0.398438 3.078125 0.078125 C 2.460938 -0.660156 2.15625 -1.367188 2.15625 -2.046875 C 2.15625 -7.554688 2.128906 -11.695312 2.078125 -14.46875 L 2.046875 -20.6875 C 2.046875 -21.507812 1.960938 -22.257812 1.796875 -22.9375 C 1.773438 -23.0625 1.765625 -23.203125 1.765625 -23.359375 C 1.765625 -24.234375 2.351562 -24.671875 3.53125 -24.671875 C 4.300781 -24.671875 4.953125 -24.414062 5.484375 -23.90625 C 6.015625 -23.40625 6.257812 -22.742188 6.21875 -21.921875 C 6.144531 -20.671875 6.050781 -18.800781 5.9375 -16.3125 L 5.71875 -12.078125 C 5.53125 -8.078125 5.398438 -5.078125 5.328125 -3.078125 C 5.304688 -2.835938 5.316406 -2.578125 5.359375 -2.296875 C 5.410156 -2.015625 5.445312 -1.835938 5.46875 -1.765625 Z M 5.828125 -1.625 "/></g></g><g style="fill:#000000;fill-opacity:1;"><g transform="translate(194.217526, 488.946741)"><path style="stroke:none" d="M 5.078125 -16.453125 C 5.035156 -16.304688 4.863281 -16.148438 4.5625 -15.984375 C 4.269531 -15.828125 4.03125 -15.675781 3.84375 -15.53125 L 2.859375 -16.0625 C 1.890625 -16.582031 1.226562 -16.992188 0.875 -17.296875 C 0.6875 -17.429688 0.59375 -17.609375 0.59375 -17.828125 C 0.59375 -17.960938 0.644531 -18.082031 0.75 -18.1875 C 0.863281 -18.300781 1.023438 -18.359375 1.234375 -18.359375 C 2.148438 -18.359375 3.269531 -18.125 4.59375 -17.65625 C 4.726562 -17.625 4.851562 -17.460938 4.96875 -17.171875 C 5.09375 -16.878906 5.128906 -16.640625 5.078125 -16.453125 Z M 1.90625 -9.890625 C 1.976562 -10.191406 2.023438 -10.410156 2.046875 -10.546875 C 2.066406 -10.691406 2.078125 -10.847656 2.078125 -11.015625 C 2.078125 -11.335938 2.175781 -11.59375 2.375 -11.78125 C 2.582031 -11.976562 2.96875 -12.078125 3.53125 -12.078125 C 4.1875 -12.078125 4.765625 -11.867188 5.265625 -11.453125 C 5.773438 -11.046875 6.09375 -10.507812 6.21875 -9.84375 C 6.28125 -9.519531 6.320312 -9.15625 6.34375 -8.75 C 6.375 -8.351562 6.390625 -8.097656 6.390625 -7.984375 L 6.890625 -1.9375 C 6.953125 -1.300781 6.859375 -0.8125 6.609375 -0.46875 C 6.367188 -0.132812 5.90625 0.03125 5.21875 0.03125 C 4.632812 0.03125 4.132812 -0.128906 3.71875 -0.453125 C 3.3125 -0.785156 3.0625 -1.210938 2.96875 -1.734375 L 2.046875 -9.21875 Z M 1.90625 -9.890625 "/></g></g><g style="fill:#000000;fill-opacity:1;"><g transform="translate(202.332879, 488.946741)"><path style="stroke:none" d="M 7.09375 -11.078125 C 7.09375 -10.234375 7.132812 -9.679688 7.21875 -9.421875 C 7.300781 -9.160156 7.503906 -9.03125 7.828125 -9.03125 C 8.140625 -9.03125 8.625 -9.101562 9.28125 -9.25 L 10.09375 -9.25 C 11.4375 -9.25 12.257812 -8.953125 12.5625 -8.359375 C 12.675781 -8.316406 12.789062 -8.191406 12.90625 -7.984375 C 13.03125 -7.785156 13.117188 -7.65625 13.171875 -7.59375 C 13.078125 -7.519531 12.929688 -7.40625 12.734375 -7.25 C 12.546875 -7.101562 12.375 -7.015625 12.21875 -6.984375 C 11.675781 -6.867188 10.863281 -6.71875 9.78125 -6.53125 C 9.5625 -6.507812 9.179688 -6.453125 8.640625 -6.359375 C 7.796875 -6.191406 7.375 -5.695312 7.375 -4.875 C 7.375 -4.75 7.398438 -4.523438 7.453125 -4.203125 C 7.734375 -2.929688 7.96875 -1.816406 8.15625 -0.859375 C 8.34375 0.0859375 8.492188 0.878906 8.609375 1.515625 L 9.25 4.625 C 9.476562 5.75 9.59375 6.617188 9.59375 7.234375 C 9.59375 7.679688 9.488281 8.015625 9.28125 8.234375 C 9.070312 8.460938 8.660156 8.578125 8.046875 8.578125 C 7.523438 8.578125 7.132812 8.445312 6.875 8.1875 C 6.625 7.925781 6.4375 7.515625 6.3125 6.953125 C 6.101562 5.867188 5.738281 4.242188 5.21875 2.078125 L 4.09375 -3.78125 C 4.050781 -5.144531 3.378906 -5.828125 2.078125 -5.828125 C 1.660156 -5.828125 1.367188 -5.894531 1.203125 -6.03125 C 1.054688 -6.15625 0.925781 -6.289062 0.8125 -6.4375 C 0.695312 -6.59375 0.640625 -6.742188 0.640625 -6.890625 C 0.640625 -7.003906 0.710938 -7.132812 0.859375 -7.28125 C 1.015625 -7.4375 1.164062 -7.523438 1.3125 -7.546875 C 2.15625 -7.671875 2.722656 -7.90625 3.015625 -8.25 C 3.304688 -8.601562 3.46875 -9.160156 3.5 -9.921875 L 3.5625 -12.171875 C 3.582031 -13.160156 3.613281 -14.171875 3.65625 -15.203125 C 3.707031 -16.242188 3.796875 -17.164062 3.921875 -17.96875 C 4.015625 -18.644531 4.304688 -19.140625 4.796875 -19.453125 C 5.296875 -19.773438 5.976562 -19.9375 6.84375 -19.9375 C 7.21875 -19.9375 7.515625 -19.925781 7.734375 -19.90625 C 8.222656 -19.863281 8.785156 -19.632812 9.421875 -19.21875 C 10.054688 -18.800781 10.398438 -18.359375 10.453125 -17.890625 C 10.679688 -16.554688 10.1875 -15.828125 8.96875 -15.703125 C 8.164062 -15.867188 7.691406 -15.773438 7.546875 -15.421875 C 7.410156 -15.066406 7.316406 -14.632812 7.265625 -14.125 C 7.265625 -13.8125 7.242188 -13.375 7.203125 -12.8125 C 7.128906 -12.25 7.09375 -11.671875 7.09375 -11.078125 Z M 7.09375 -11.078125 "/></g></g><g style="fill:#000000;fill-opacity:1;"><g transform="translate(215.388022, 488.946741)"><path style="stroke:none" d="M 8.1875 -5.5 C 7.945312 -5.363281 7.609375 -5.296875 7.171875 -5.296875 C 7.003906 -5.296875 6.800781 -5.304688 6.5625 -5.328125 C 6.332031 -5.347656 6.132812 -5.347656 5.96875 -5.328125 C 6.15625 -4.554688 6.597656 -3.925781 7.296875 -3.4375 C 8.003906 -2.957031 8.796875 -2.71875 9.671875 -2.71875 C 10.421875 -2.71875 11.09375 -2.882812 11.6875 -3.21875 C 12.550781 -3.65625 13.300781 -4.179688 13.9375 -4.796875 C 14.382812 -5.242188 14.8125 -5.46875 15.21875 -5.46875 C 15.46875 -5.46875 15.691406 -5.335938 15.890625 -5.078125 C 16.078125 -4.773438 16.171875 -4.398438 16.171875 -3.953125 C 16.171875 -3.484375 16.078125 -3.117188 15.890625 -2.859375 C 15.273438 -1.921875 14.476562 -1.273438 13.5 -0.921875 C 12.519531 -0.566406 11.382812 -0.390625 10.09375 -0.390625 C 8.75 -0.390625 7.453125 -0.679688 6.203125 -1.265625 C 4.960938 -1.859375 3.898438 -2.664062 3.015625 -3.6875 C 2.128906 -4.707031 1.546875 -5.84375 1.265625 -7.09375 C 1.078125 -7.820312 0.984375 -8.539062 0.984375 -9.25 C 0.984375 -10.351562 1.296875 -11.242188 1.921875 -11.921875 C 2.546875 -12.609375 3.550781 -13.257812 4.9375 -13.875 C 6.207031 -14.414062 7.382812 -14.6875 8.46875 -14.6875 C 9.25 -14.6875 10.003906 -14.566406 10.734375 -14.328125 C 12.992188 -13.617188 14.125 -12.65625 14.125 -11.4375 C 14.125 -10.65625 13.660156 -9.710938 12.734375 -8.609375 C 12.296875 -8.085938 11.769531 -7.628906 11.15625 -7.234375 C 10.539062 -6.835938 9.941406 -6.476562 9.359375 -6.15625 C 8.785156 -5.84375 8.394531 -5.625 8.1875 -5.5 Z M 9.671875 -12.03125 C 9.648438 -12.15625 9.5625 -12.253906 9.40625 -12.328125 C 9.25 -12.410156 9.160156 -12.46875 9.140625 -12.5 C 8.503906 -12.539062 7.859375 -12.351562 7.203125 -11.9375 C 6.546875 -11.53125 6 -11.007812 5.5625 -10.375 C 5.125 -9.738281 4.90625 -9.128906 4.90625 -8.546875 L 4.9375 -8.265625 C 4.96875 -8.171875 5.09375 -8.050781 5.3125 -7.90625 C 5.53125 -7.757812 5.664062 -7.710938 5.71875 -7.765625 C 7.382812 -9.015625 8.644531 -10.015625 9.5 -10.765625 C 9.632812 -10.910156 9.703125 -11.171875 9.703125 -11.546875 C 9.703125 -11.773438 9.691406 -11.9375 9.671875 -12.03125 Z M 9.671875 -12.03125 "/></g></g><g style="fill:#facc0b;fill-opacity:1;"><g transform="translate(106.079326, 382.461338)"><path style="stroke:none" d="M 37.53125 -51.65625 C 38.207031 -51.46875 38.71875 -51.132812 39.0625 -50.65625 C 39.40625 -50.1875 39.578125 -49.660156 39.578125 -49.078125 C 39.578125 -48.710938 39.492188 -48.328125 39.328125 -47.921875 C 39.171875 -47.515625 38.921875 -47.148438 38.578125 -46.828125 C 38.242188 -46.515625 37.847656 -46.28125 37.390625 -46.125 C 36.941406 -45.96875 36.398438 -45.957031 35.765625 -46.09375 C 35.179688 -46.3125 34.398438 -46.546875 33.421875 -46.796875 C 32.453125 -47.046875 31.222656 -47.171875 29.734375 -47.171875 C 26.785156 -47.171875 24.144531 -46.503906 21.8125 -45.171875 C 19.488281 -43.835938 17.519531 -42.035156 15.90625 -39.765625 C 14.300781 -37.503906 13.082031 -35.003906 12.25 -32.265625 C 11.414062 -29.535156 11 -26.765625 11 -23.953125 C 11 -21.328125 11.347656 -18.835938 12.046875 -16.484375 C 12.742188 -14.140625 13.769531 -12.0625 15.125 -10.25 C 16.488281 -8.4375 18.164062 -7.019531 20.15625 -6 C 22.144531 -4.988281 24.429688 -4.484375 27.015625 -4.484375 C 30.140625 -4.484375 32.976562 -5.304688 35.53125 -6.953125 C 38.09375 -8.609375 40.128906 -11.039062 41.640625 -14.25 C 43.160156 -17.46875 43.921875 -21.40625 43.921875 -26.0625 C 43.921875 -28.6875 43.660156 -31.117188 43.140625 -33.359375 C 42.617188 -35.597656 41.972656 -37.554688 41.203125 -39.234375 C 40.429688 -40.910156 39.707031 -42.195312 39.03125 -43.09375 C 38.570312 -43.726562 38.207031 -44.238281 37.9375 -44.625 C 37.664062 -45.007812 37.53125 -45.453125 37.53125 -45.953125 C 37.53125 -46.359375 37.617188 -46.753906 37.796875 -47.140625 C 37.984375 -47.523438 38.234375 -47.882812 38.546875 -48.21875 C 38.867188 -48.5625 39.222656 -48.820312 39.609375 -49 C 39.992188 -49.1875 40.363281 -49.28125 40.71875 -49.28125 C 41.445312 -49.28125 42.046875 -49.078125 42.515625 -48.671875 C 42.992188 -48.265625 43.425781 -47.765625 43.8125 -47.171875 C 44.195312 -46.585938 44.546875 -46.046875 44.859375 -45.546875 C 46.671875 -42.878906 48.003906 -39.847656 48.859375 -36.453125 C 49.722656 -33.054688 50.15625 -29.613281 50.15625 -26.125 C 50.15625 -22.414062 49.632812 -18.910156 48.59375 -15.609375 C 47.550781 -12.304688 46.035156 -9.375 44.046875 -6.8125 C 42.054688 -4.257812 39.613281 -2.257812 36.71875 -0.8125 C 33.820312 0.632812 30.539062 1.359375 26.875 1.359375 C 23.84375 1.359375 21.128906 0.847656 18.734375 -0.171875 C 16.335938 -1.191406 14.253906 -2.570312 12.484375 -4.3125 C 10.722656 -6.050781 9.253906 -8.003906 8.078125 -10.171875 C 6.898438 -12.347656 6.023438 -14.625 5.453125 -17 C 4.890625 -19.375 4.609375 -21.671875 4.609375 -23.890625 C 4.609375 -27.515625 5.21875 -31.054688 6.4375 -34.515625 C 7.664062 -37.972656 9.410156 -41.101562 11.671875 -43.90625 C 13.929688 -46.71875 16.585938 -48.957031 19.640625 -50.625 C 22.703125 -52.300781 26.066406 -53.140625 29.734375 -53.140625 C 30.953125 -53.140625 32.238281 -53.015625 33.59375 -52.765625 C 34.957031 -52.523438 36.269531 -52.15625 37.53125 -51.65625 Z M 37.53125 -51.65625 "/></g></g></g></svg>